<svg xmlns="http://www.w3.org/2000/svg"  viewBox="0 0 64 64" width="48px" height="48px"><path d="M 28 9 C 26.895 9 26 9.895 26 11 L 26 12 L 14 12 C 12.896 12 12 12.896 12 14 C 12 15.104 12.896 16 14 16 L 15 16 L 15 46 C 15 49.309 17.691 52 21 52 L 43 52 C 46.309 52 49 49.309 49 46 L 49 16 L 50 16 C 51.104 16 52 15.104 52 14 C 52 12.896 51.104 12 50 12 L 38 12 L 38 11 C 38 9.895 37.105 9 36 9 L 28 9 z M 19 16 L 45 16 L 45 46 C 45 47.103 44.103 48 43 48 L 21 48 C 19.897 48 19 47.103 19 46 L 19 16 z M 26 25 C 25.48825 25 24.976437 25.195438 24.585938 25.585938 C 23.804938 26.366938 23.804938 27.633063 24.585938 28.414062 L 29.171875 33 L 24.585938 37.585938 C 23.804938 38.366938 23.804938 39.633063 24.585938 40.414062 C 24.976938 40.805063 25.488 41 26 41 C 26.512 41 27.023062 40.805062 27.414062 40.414062 L 32 35.828125 L 36.585938 40.414062 C 36.976938 40.805063 37.488 41 38 41 C 38.512 41 39.023063 40.805062 39.414062 40.414062 C 40.195062 39.633062 40.195062 38.366937 39.414062 37.585938 L 34.828125 33 L 39.414062 28.414062 C 40.195062 27.633062 40.195062 26.366937 39.414062 25.585938 C 38.633062 24.804938 37.366937 24.804938 36.585938 25.585938 L 32 30.171875 L 27.414062 25.585938 C 27.023563 25.195437 26.51175 25 26 25 z"/></svg>